<svg xmlns="http://www.w3.org/2000/svg" width="333" height="446" viewBox="0 0 333 446" fill="none"><path d="M333 0H0V446H286L333 408.5V0Z" fill="#101215" fill-opacity="0.4"></path><mask id="mask0_9_766" style="mask-type:alpha" maskUnits="userSpaceOnUse" x="0" y="0" width="333" height="446"><path d="M333 0H0V446H286L333 408.5V0Z" fill="#101215" fill-opacity="0.4"></path></mask><g mask="url(#mask0_9_766)"><path fill-rule="evenodd" clip-rule="evenodd" d="M316.487 78.9944L279.628 15.1534C278.049 12.4185 274.102 12.4185 272.523 15.1533L235.664 78.9944C234.085 81.7292 236.059 85.1478 239.217 85.1478H312.934C316.092 85.1478 318.066 81.7292 316.487 78.9944ZM283.181 13.1022C280.023 7.63259 272.128 7.63258 268.97 13.1022L232.111 76.9433C228.954 82.4129 232.901 89.25 239.217 89.25H312.934C319.25 89.25 323.197 82.4129 320.039 76.9433L283.181 13.1022Z" fill="#EB2323" fill-opacity="0.4" style="mix-blend-mode:exclusion"></path><path d="M272.479 27.0009C272.453 24.9966 274.071 23.3578 276.075 23.3578V23.3578C278.08 23.3578 279.697 24.9966 279.671 27.0009L279.274 57.6231C279.251 59.3734 277.826 60.7805 276.075 60.7805V60.7805C274.325 60.7805 272.899 59.3735 272.877 57.6231L272.479 27.0009ZM276.075 79.7635C273.484 79.7635 271.46 77.8225 271.46 75.338C271.46 72.8147 273.484 70.9125 276.075 70.9125C278.707 70.9125 280.69 72.8147 280.69 75.338C280.69 77.8225 278.707 79.7635 276.075 79.7635Z" fill="#EB2323" fill-opacity="0.4" style="mix-blend-mode:exclusion"></path><rect x="-87" y="118.806" width="354" height="23" transform="rotate(-33.5817 -87 118.806)" fill="#313A43" fill-opacity="0.24"></rect><rect x="-104.547" y="196.669" width="501.754" height="23" transform="rotate(-33.5817 -104.547 196.669)" fill="#313A43" fill-opacity="0.24"></rect><rect x="-77" y="237.532" width="501.754" height="23" transform="rotate(-33.5817 -77 237.532)" fill="#313A43" fill-opacity="0.24"></rect><rect x="-49" y="277.532" width="501.754" height="23" transform="rotate(-33.5817 -49 277.532)" fill="#313A43" fill-opacity="0.24"></rect><rect x="-26" y="323.532" width="501.754" height="23" transform="rotate(-33.5817 -26 323.532)" fill="#313A43" fill-opacity="0.24"></rect><rect x="-20" y="380.532" width="501.754" height="23" transform="rotate(-33.5817 -20 380.532)" fill="#313A43" fill-opacity="0.24"></rect><rect x="-20" y="445.532" width="501.754" height="23" transform="rotate(-33.5817 -20 445.532)" fill="#313A43" fill-opacity="0.24"></rect><rect x="6" y="489.532" width="501.754" height="23" transform="rotate(-33.5817 6 489.532)" fill="#313A43" fill-opacity="0.24"></rect><rect x="31" y="531.532" width="501.754" height="23" transform="rotate(-33.5817 31 531.532)" fill="#313A43" fill-opacity="0.24"></rect><rect x="-15" y="57" width="374" height="396" fill="url(#paint0_linear_9_766)"></rect></g><defs><linearGradient id="paint0_linear_9_766" x1="171.479" y1="465.453" x2="171.479" y2="242.547" gradientUnits="userSpaceOnUse"><stop stop-color="#121518"></stop><stop offset="1" stop-color="#121518" stop-opacity="0"></stop></linearGradient></defs></svg>