<svg xmlns="http://www.w3.org/2000/svg" width="272" height="55" viewBox="0 0 272 55" fill="none"><path d="M272 3C272 1.34315 270.657 0 269 0H18.0156C17.3569 0 16.7165 0.216796 16.1932 0.616927L1.17765 12.0994C0.435392 12.6671 0 13.5481 0 14.4825V52C0 53.6569 1.34315 55 3 55H257.146C257.776 55 258.389 54.8021 258.899 54.4344L270.753 45.8979C271.536 45.3341 272 44.4282 272 43.4635V3Z" fill="url(#paint0_linear_9_782)"></path><mask id="mask0_9_782" style="mask-type:alpha" maskUnits="userSpaceOnUse" x="0" y="0" width="272" height="55"><path d="M272 3C272 1.34315 270.657 0 269 0H18.0156C17.3569 0 16.7165 0.216796 16.1932 0.616927L1.17765 12.0994C0.435392 12.6671 0 13.5481 0 14.4825V52C0 53.6569 1.34315 55 3 55H257.146C257.776 55 258.389 54.8021 258.899 54.4344L270.753 45.8979C271.536 45.3341 272 44.4282 272 43.4635V3Z" fill="url(#paint1_linear_9_782)"></path></mask><g mask="url(#mask0_9_782)"><rect width="7" height="95" transform="matrix(-0.62997 0.776619 0.776619 0.62997 247.517 -14)" fill="#D9D9D9" fill-opacity="0.3" style="mix-blend-mode:overlay"></rect><rect width="7" height="126.041" transform="matrix(-0.62997 0.776619 0.776619 0.62997 218.517 -14)" fill="#D9D9D9" fill-opacity="0.3" style="mix-blend-mode:overlay"></rect><rect width="7" height="126.041" transform="matrix(-0.62997 0.776619 0.776619 0.62997 190.41 -14)" fill="#D9D9D9" fill-opacity="0.3" style="mix-blend-mode:overlay"></rect><rect width="7" height="126.041" transform="matrix(-0.62997 0.776619 0.776619 0.62997 162.41 -14)" fill="#D9D9D9" fill-opacity="0.3" style="mix-blend-mode:overlay"></rect><rect width="7" height="126.041" transform="matrix(-0.62997 0.776619 0.776619 0.62997 136.41 -14)" fill="#D9D9D9" fill-opacity="0.3" style="mix-blend-mode:overlay"></rect><rect width="7" height="126.041" transform="matrix(-0.62997 0.776619 0.776619 0.62997 109.41 -14)" fill="#D9D9D9" fill-opacity="0.3" style="mix-blend-mode:overlay"></rect><rect width="7" height="126.041" transform="matrix(-0.62997 0.776619 0.776619 0.62997 82.4098 -14)" fill="#D9D9D9" fill-opacity="0.3" style="mix-blend-mode:overlay"></rect><rect width="7" height="126.041" transform="matrix(-0.62997 0.776619 0.776619 0.62997 54.4098 -14)" fill="#D9D9D9" fill-opacity="0.3" style="mix-blend-mode:overlay"></rect><rect width="7" height="126.041" transform="matrix(-0.62997 0.776619 0.776619 0.62997 27.4098 -14)" fill="#D9D9D9" fill-opacity="0.3" style="mix-blend-mode:overlay"></rect><rect width="7" height="126.041" transform="matrix(-0.62997 0.776619 0.776619 0.62997 0.409821 -14)" fill="#D9D9D9" fill-opacity="0.3" style="mix-blend-mode:overlay"></rect><rect width="7" height="126.041" transform="matrix(-0.62997 0.776619 0.776619 0.62997 -25.5902 -14)" fill="#D9D9D9" fill-opacity="0.3" style="mix-blend-mode:overlay"></rect></g><defs><linearGradient id="paint0_linear_9_782" x1="-3.26727" y1="30.6429" x2="248.299" y2="37.4357" gradientUnits="userSpaceOnUse"><stop stop-color="#34AADF"></stop><stop offset="0.614583" stop-color="#66DFC9"></stop><stop offset="1" stop-color="#CCFFF9"></stop></linearGradient><linearGradient id="paint1_linear_9_782" x1="-3.26727" y1="30.6429" x2="248.299" y2="37.4357" gradientUnits="userSpaceOnUse"><stop stop-color="#34AADF"></stop><stop offset="0.614583" stop-color="#66DFC9"></stop><stop offset="1" stop-color="#CCFFF9"></stop></linearGradient></defs></svg>